<svg height="480pt" viewBox="0 0 480 480.00002" width="480pt" xmlns="http://www.w3.org/2000/svg"><path d="m24 440h16v16h-16zm0 0"/><path d="m24 416h16v16h-16zm0 0"/><path d="m48 440h16v16h-16zm0 0"/><path d="m440 240h16v16h-16zm0 0"/><path d="m440 216h16v16h-16zm0 0"/><path d="m416 240h16v16h-16zm0 0"/><path d="m440 184h-136v-144c-.027344-22.082031-17.917969-39.9726562-40-40h-168c-15.902344-.015625-30.292969 9.414062-36.625 24h-35.375c-13.253906 0-24 10.746094-24 24v80c0 13.253906 10.746094 24 24 24h32v240h-48c-4.417969 0-8 3.582031-8 8v72c0 4.417969 3.582031 8 8 8h320c4.417969 0 8-3.582031 8-8v-32c0-4.417969-3.582031-8-8-8h-24v-16h-16v16h-91.472656l-21.671875-36.121094c-1.445313-2.40625-4.046875-3.878906-6.855469-3.878906h-96v-240h53.785156l38.09375 22.855469c3.105469 1.867187 7.078125 1.410156 9.679688-1.105469 2.605468-2.519531 3.191406-6.472656 1.433594-9.636719l-6.746094-12.113281c13.160156-.136719 23.753906-10.839844 23.753906-24v-80c0-13.253906-10.746094-24-24-24h-89.863281c4.542969-5.089844 11.039062-8 17.863281-8h168c13.253906 0 24 10.746094 24 24v144h-136c-22.082031.027344-39.972656 17.917969-40 40v48c0 4.417969 3.582031 8 8 8h352c4.417969 0 8-3.582031 8-8v-48c-.027344-22.082031-17.917969-39.972656-40-40zm-254.855469 260.121094c1.445313 2.40625 4.046875 3.878906 6.855469 3.878906h128v16h-304v-56h147.472656zm-9.144531-396.121094v80c0 4.417969-3.582031 8-8 8h-13.359375c-2.476563 0-4.8125 1.144531-6.328125 3.105469-1.515625 1.957031-2.039062 4.507812-1.417969 6.902343l-14.773437-8.863281c-1.246094-.75-2.667969-1.144531-4.121094-1.144531h-104c-4.417969 0-8-3.582031-8-8v-80c0-4.417969 3.582031-8 8-8h144c4.417969 0 8 3.582031 8 8zm120 192c-4.417969 0-8-3.582031-8-8s3.582031-8 8-8 8 3.582031 8 8-3.582031 8-8 8zm168 24h-160v-9.472656c11.019531-3.894532 17.632812-15.164063 15.65625-26.683594-1.976562-11.523438-11.96875-19.941406-23.65625-19.941406s-21.679688 8.417968-23.65625 19.941406c-1.976562 11.519531 4.636719 22.789062 15.65625 26.683594v9.472656h-112v-24h17.472656c3.894532 11.019531 15.164063 17.632812 26.683594 15.65625 11.523438-1.976562 19.941406-11.96875 19.941406-23.65625s-8.417968-21.675781-19.941406-23.65625c-11.519531-1.976562-22.789062 4.636719-26.683594 15.65625h-25.472656c-4.417969 0-8 3.582031-8 8v32h-32v-40c0-13.253906 10.746094-24 24-24h264v17.214844l-19.121094 3.203125c-5.6875-10.164063-17.867187-14.753907-28.84375-10.871094-10.980468 3.882813-17.566406 15.105469-15.605468 26.582031 1.960937 11.480469 11.90625 19.878906 23.550781 19.890625s21.605469-8.363281 23.59375-19.835937l25.738281-4.28125c3.863281-.640625 6.695312-3.984375 6.6875-7.902344v-24h8c13.253906 0 24 10.746094 24 24zm-256-32c0-4.417969 3.582031-8 8-8s8 3.582031 8 8-3.582031 8-8 8-8-3.582031-8-8zm176 0c0 4.417969-3.582031 8-8 8s-8-3.582031-8-8 3.582031-8 8-8 8 3.582031 8 8zm0 0"/><path d="m344 24c66.242188.074219 119.925781 53.757812 120 120 0 4.417969 3.582031 8 8 8s8-3.582031 8-8c-.082031-75.074219-60.925781-135.917969-136-136-4.417969 0-8 3.582031-8 8s3.582031 8 8 8zm0 0"/><path d="m344 56c48.578125.058594 87.941406 39.421875 88 88 0 4.417969 3.582031 8 8 8s8-3.582031 8-8c-.066406-57.410156-46.589844-103.933594-104-104-4.417969 0-8 3.582031-8 8s3.582031 8 8 8zm0 0"/><path d="m344 88c30.914062.035156 55.964844 25.085938 56 56 0 4.417969 3.582031 8 8 8s8-3.582031 8-8c-.042969-39.746094-32.253906-71.957031-72-72-4.417969 0-8 3.582031-8 8s3.582031 8 8 8zm0 0"/><path d="m360 152c6.363281.011719 12.46875-2.515625 16.96875-7.015625 8.101562-8.089844 9.363281-20.777344 3.007812-30.304687-6.355468-9.523438-18.554687-13.234376-29.136718-8.859376-10.582032 4.375-16.597656 15.617188-14.371094 26.847657 2.230469 11.234375 12.082031 19.328125 23.53125 19.332031zm-5.65625-29.648438c2.007812-2.078124 4.984375-2.914062 7.78125-2.179687 2.796875.730469 4.980469 2.914063 5.710938 5.710937.734374 2.796876-.101563 5.773438-2.179688 7.78125-2.007812 2.078126-4.984375 2.914063-7.78125 2.179688-2.796875-.730469-4.980469-2.914062-5.710938-5.710938-.734374-2.796874.101563-5.773437 2.179688-7.78125zm0 0"/><path d="m424 368h-32c-8.835938 0-16 7.164062-16 16v80c0 8.835938 7.164062 16 16 16h32c8.835938 0 16-7.164062 16-16v-80c0-8.835938-7.164062-16-16-16zm-32 96v-80h32v80zm0 0"/><path d="m400 360c0-4.417969 3.582031-8 8-8s8 3.582031 8 8 3.582031 8 8 8 8-3.582031 8-8c0-13.253906-10.746094-24-24-24s-24 10.746094-24 24c0 4.417969 3.582031 8 8 8s8-3.582031 8-8zm0 0"/><path d="m408 312c-26.5.027344-47.972656 21.5-48 48 0 4.417969 3.582031 8 8 8s8-3.582031 8-8c0-17.671875 14.328125-32 32-32s32 14.328125 32 32c0 4.417969 3.582031 8 8 8s8-3.582031 8-8c-.027344-26.5-21.5-47.972656-48-48zm0 0"/><path d="m408 288c-35.1875.042969-65.207031 25.472656-71.03125 60.175781-.636719 1.175781-.96875 2.488281-.96875 3.824219v8c0 4.417969 3.582031 8 8 8s8-3.582031 8-8c0-30.929688 25.070312-56 56-56s56 25.070312 56 56c0 4.417969 3.582031 8 8 8s8-3.582031 8-8v-8c0-1.335938-.332031-2.648438-.96875-3.824219-5.824219-34.703125-35.84375-60.132812-71.03125-60.175781zm0 0"/><path d="m400 392h16v16h-16zm0 0"/><path d="m400 416h16v16h-16zm0 0"/><path d="m400 440h16v16h-16zm0 0"/><path d="m80 96h32v16h-32zm0 0"/><path d="m32 96h40v16h-40zm0 0"/><path d="m120 96h40v16h-40zm0 0"/><path d="m32 64h128v16h-128zm0 0"/></svg>