<?xml version="1.0"?>
<svg xmlns="http://www.w3.org/2000/svg" id="Layer_1" data-name="Layer 1" viewBox="0 0 512 512" width="512" height="512"><title>Extinguisher</title><path d="M49.6,115h54.933a54.208,54.208,0,0,0-7.123,7.245C85.343,136.375,78.4,156.313,70.36,179.311c-1.882,5.382-3.828,10.986-5.931,16.756-.025.07-.05.158-.073.229l-2.571,7.723a8,8,0,1,0,15.178,5.068l2.537-7.609c2.125-5.832,4.076-11.563,5.963-16.962,15.637-44.728,24.25-69.516,71-69.516H163v35.5a8.69,8.69,0,0,0,8.288,8.5H181v16.248A87.842,87.842,0,0,0,117,259.6V485.889A8.173,8.173,0,0,0,125.091,494H285.036a8.255,8.255,0,0,0,8.239-8.055c0-1-.275-2.006-.275-2.885V259.6c0-39.641-27-73.218-63-84.045V159h9.353c4.418,0,7.647-4.081,7.647-8.5V134H350v10.809a8.031,8.031,0,0,0,4.913,7.366L459.261,196.37a8.039,8.039,0,0,0,3.127.633,7.385,7.385,0,0,0,4.225-1.33A7.823,7.823,0,0,0,470,189V26.111a7.741,7.741,0,0,0-10.792-7.38L354.893,62.412A7.984,7.984,0,0,0,350,69.791V81H247V64.1a7.792,7.792,0,0,0-7.647-8.1H171.288A8.336,8.336,0,0,0,163,64.1V99H49.6a8,8,0,0,0,0,16ZM366,75.115l88-36.982V176.926l-88-37.417ZM350,97v21H247V97ZM277,259.6V478H133V259.6c0-39.544,32.456-71.715,72-71.715S277,220.056,277,259.6Zm-63-87.243a86.383,86.383,0,0,0-9.014-.472,76.1,76.1,0,0,0-7.986.376V159h17ZM179,72h52v71H179Z"/></svg>
